<?xml version="1.0" encoding="UTF-8" standalone="no"?>
<svg
   version="1.0"
   width="48.000000pt"
   height="48.000000pt"
   viewBox="0 0 48.000000 48.000000"
   preserveAspectRatio="xMidYMid meet"
   id="svg2"
   sodipodi:docname="icons8-download-48.svg"
   inkscape:version="1.3.2 (091e20e, 2023-11-25, custom)"
   xmlns:inkscape="http://www.inkscape.org/namespaces/inkscape"
   xmlns:sodipodi="http://sodipodi.sourceforge.net/DTD/sodipodi-0.dtd"
   xmlns="http://www.w3.org/2000/svg"
   xmlns:svg="http://www.w3.org/2000/svg">
  <defs
     id="defs2" />
  <sodipodi:namedview
     id="namedview2"
     pagecolor="#505050"
     bordercolor="#eeeeee"
     borderopacity="1"
     inkscape:showpageshadow="0"
     inkscape:pageopacity="0"
     inkscape:pagecheckerboard="0"
     inkscape:deskcolor="#505050"
     inkscape:document-units="pt"
     inkscape:zoom="0.80175781"
     inkscape:cx="-56.126675"
     inkscape:cy="81.695493"
     inkscape:window-width="1920"
     inkscape:window-height="1017"
     inkscape:window-x="-8"
     inkscape:window-y="-8"
     inkscape:window-maximized="1"
     inkscape:current-layer="svg2" />
  <g
     transform="translate(0.000000,48.000000) scale(0.100000,-0.100000)"
     fill="#000000"
     stroke="none"
     id="g2"
     style="fill:#86bc42;fill-opacity:1">
    <path
       d="M192 428 c-7 -7 -12 -40 -12 -80 l0 -68 -42 0 -43 0 73 -72 72 -73 72 73 73 72 -43 0 -42 0 0 68 c0 78 -9 92 -60 92 -20 0 -41 -5 -48 -12z"
       id="path1"
       style="fill:#86bc42;fill-opacity:1" />
    <path
       d="M40 60 c0 -19 7 -20 200 -20 193 0 200 1 200 20 0 19 -7 20 -200 20 -193 0 -200 -1 -200 -20z"
       id="path2"
       style="fill:#86bc42;fill-opacity:1" />
  </g>
</svg>
